# xmcd
#
# Track frame offsets:
#	150
#	52534
#	59321
#	66032
#	72625
#	79316
#	86465
#	94149
#	101791
#	114581
#	127156
#	139190
#	151841
#	161565
#	177251
#	188015
#	200468
#	211936
#	224349
#	237223
#	249675
#	262459
#	273640
#	285445
#
# Disc length: 3984 seconds
#
# Revision: 0
# Processed by: cddbd v1.5.1PL2 Copyright (c) Steve Scherf et al.
# Submitted via: audiograbber 1.83.01
#
DISCID=6c0f8e18
DTITLE=Various Artist - Early Country Radio - CD 2
DYEAR=1900
DGENRE=Country
TTITLE0=The Carter Family - May I Sleep in Your Barn Tonight Mister/more
TTITLE1=The Carter Family - Broken Hearted Lover
TTITLE2=The Carter Family - Darling Daisies
TTITLE3=The Carter Family - Little Joe
TTITLE4=The Carter Family - My Heavenly Home is Bright and Fair
TTITLE5=The Carter Family - The Last Letter
TTITLE6=The Carter Family - Leaning on the Everlasting Arms
TTITLE7=The Carter Family - My Old Pal of Yesterday
TTITLE8=The Carter Family - No Depression in Heaven
TTITLE9=The Carter Family - Jealous Hearted Me
TTITLE10=The Carter Family - I'm Working on a Building
TTITLE11=The Carter Family - My Dixie Darling
TTITLE12=The Carter Family - Kissing is a Crime
TTITLE13=The Carter Family - Little Darling Pal of Mine
TTITLE14=The Carter Family - Cannonball Blues
TTITLE15=The Carter Family - Are You Lonesome Tonight
TTITLE16=The Carter Family - My Native Home
TTITLE17=The Carter Family - A Distant Land to Roam
TTITLE18=The Carter Family - East Virginia Blues No. 2
TTITLE19=The Carter Family - Keep on the Sunny Side
TTITLE20=The Carter Family - Single Girl, Married Man
TTITLE21=The Carter Family - Lonesome Valley
TTITLE22=The Carter Family - Happy or Lonesome
TTITLE23=The Carter Family - Just Another Broken Heart
EXTD=
EXTT0=
EXTT1=
EXTT2=
EXTT3=
EXTT4=
EXTT5=
EXTT6=
EXTT7=
EXTT8=
EXTT9=
EXTT10=
EXTT11=
EXTT12=
EXTT13=
EXTT14=
EXTT15=
EXTT16=
EXTT17=
EXTT18=
EXTT19=
EXTT20=
EXTT21=
EXTT22=
EXTT23=
PLAYORDER=
